# xmcd CD database file
#
# Track frame offsets:
#	150
#	19575
#	36217
#	51630
#	67797
#	86675
#	102222
#	118332
#	137152
#	153577
#	167527
#	183352
#
# Disc length: 2703 seconds
#
# Revision: 4
# Processed by: cddbd v1.5.2PL0 Copyright (c) Steve Scherf et al.
# Submitted via: CDex 1.51
#
DISCID=9f0a8d0c
DTITLE=Trisha Yearwood - Inside Out
DYEAR=2001
DGENRE=Country
TTITLE0=Trisha Yearwood - Love Alone
TTITLE1=Trisha Yearwood - I Would've Loved You Anyway
TTITLE2=Trisha Yearwood - For A While
TTITLE3=Trisha Yearwood - Seven Year Ache
TTITLE4=Trisha Yearwood - I Don't Paint Myself Into Corners
TTITLE5=Trisha Yearwood - Harmless Heart
TTITLE6=Trisha Yearwood - Inside Out
TTITLE7=Trisha Yearwood - Love Let Go
TTITLE8=Trisha Yearwood - Melancholy Blue
TTITLE9=Trisha Yearwood - Second Chance
TTITLE10=Trisha Yearwood - Love Me Or Leave Me Alone
TTITLE11=Trisha Yearwood - When We Were Still In Love
EXTD=YEAR: 2001
EXTT0=
EXTT1=
EXTT2=
EXTT3=
EXTT4=
EXTT5=
EXTT6=
EXTT7=
EXTT8=
EXTT9=
EXTT10=
EXTT11=
PLAYORDER=
